<svg width="37" height="25" viewBox="0 0 360 239" fill="none" xmlns="http://www.w3.org/2000/svg">
<rect width="360" height="239" fill="black"/>
<path d="M331.337 153.803V150.117H330.373L329.258 152.647L328.149 150.117H327.179V153.803H327.864V151.026L328.906 153.422H329.616L330.659 151.02V153.803H331.337ZM325.22 153.803V150.748H326.454V150.134H323.301V150.748H324.535V153.803H325.214H325.22Z" fill="#0099DF"/>
<path d="M221.753 177.616H138.321V28.3012H221.753V177.616Z" fill="#6C6BBD"/>
<path d="M143.616 102.961C143.616 72.6713 157.857 45.6901 180.034 28.3027C163.247 15.1212 142.484 7.96763 121.106 8C68.4447 8 25.7583 50.5147 25.7583 102.961C25.7583 155.407 68.4447 197.924 121.104 197.924C142.483 197.956 163.247 190.801 180.034 177.619C157.857 160.232 143.616 133.251 143.616 102.961Z" fill="#EB001B"/>
<path d="M334.314 102.961C334.314 155.407 291.628 197.924 238.968 197.924C217.588 197.955 196.823 190.801 180.032 177.619C202.211 160.232 216.458 133.251 216.458 102.961C216.458 72.6713 202.211 45.6916 180.034 28.3042C196.824 15.123 217.588 7.96908 238.968 7.99999C291.628 7.99999 334.316 50.5147 334.316 102.961" fill="#0099DF"/>
<path d="M249.984 206.813C251.093 206.813 252.688 207.025 253.906 207.501L252.21 212.67C251.115 212.234 249.944 212.018 248.766 212.035C245.164 212.035 243.367 214.353 243.367 218.52V232.661H237.856V207.443H243.313V210.499C244.744 208.283 246.811 206.804 249.989 206.804L249.984 206.813ZM229.629 212.449H220.626V223.841C220.626 226.371 221.523 228.06 224.281 228.06C225.713 228.06 227.513 227.584 229.149 226.635L230.738 231.326C228.992 232.539 226.24 233.283 223.857 233.283C217.339 233.283 215.065 229.799 215.065 223.942V212.447H209.923V207.443H215.064V199.794H220.616V207.443H229.62V212.453L229.629 212.449ZM159.126 217.824C159.714 214.184 161.934 211.702 165.856 211.702C169.404 211.702 171.682 213.918 172.263 217.824H159.122H159.126ZM177.987 220.041C177.933 212.18 173.051 206.801 165.956 206.801C158.542 206.801 153.352 212.177 153.352 220.041C153.352 228.053 158.75 233.275 166.331 233.275C170.144 233.275 173.636 232.327 176.71 229.742L174.006 225.68C171.89 227.369 169.186 228.318 166.646 228.318C163.098 228.318 159.868 226.683 159.074 222.148H177.875C177.929 221.46 177.984 220.778 177.984 220.041H177.987ZM202.186 213.879C200.651 212.925 197.53 211.711 194.298 211.711C191.28 211.711 189.478 212.822 189.478 214.67C189.478 216.359 191.381 216.831 193.765 217.146L196.359 217.514C201.87 218.311 205.205 220.629 205.205 225.061C205.205 229.861 200.968 233.289 193.661 233.289C189.526 233.289 185.713 232.232 182.695 230.016L185.289 225.741C187.14 227.166 189.902 228.38 193.715 228.38C197.474 228.38 199.487 227.275 199.487 225.319C199.487 223.899 198.056 223.102 195.037 222.686L192.443 222.317C186.774 221.52 183.7 218.99 183.7 214.88C183.7 209.87 187.835 206.808 194.243 206.808C198.268 206.808 201.924 207.708 204.568 209.447L202.186 213.879ZM270.117 212.018C269.036 212.01 267.963 212.211 266.958 212.61C266.014 212.991 265.156 213.558 264.437 214.276C263.712 215.012 263.143 215.884 262.763 216.841C261.955 218.961 261.955 221.302 262.763 223.422C263.143 224.38 263.712 225.252 264.437 225.988C265.156 226.707 266.014 227.274 266.958 227.655C268.992 228.445 271.249 228.445 273.282 227.655C274.231 227.275 275.093 226.709 275.816 225.988C276.55 225.256 277.127 224.383 277.513 223.423C278.321 221.304 278.321 218.963 277.513 216.843C277.127 215.882 276.55 215.009 275.816 214.276C275.093 213.556 274.231 212.989 273.282 212.61C272.278 212.21 271.205 212.009 270.123 212.018H270.117ZM270.123 206.808C271.992 206.789 273.846 207.135 275.58 207.828C277.198 208.469 278.673 209.421 279.921 210.63C281.15 211.829 282.125 213.262 282.788 214.843C284.17 218.234 284.17 222.029 282.788 225.42C282.125 227.003 281.15 228.438 279.921 229.639C278.671 230.846 277.197 231.798 275.58 232.441C272.07 233.793 268.179 233.793 264.668 232.441C263.057 231.799 261.59 230.847 260.349 229.639C259.128 228.434 258.157 227 257.494 225.42C256.112 222.029 256.112 218.234 257.494 214.843C258.158 213.255 259.136 211.816 260.369 210.611C261.602 209.406 263.065 208.46 264.672 207.828C266.407 207.136 268.261 206.789 270.13 206.808H270.123ZM126.941 220.049C126.941 215.617 129.856 211.977 134.622 211.977C139.175 211.977 142.249 215.461 142.249 220.049C142.249 224.637 139.175 228.114 134.624 228.114C129.858 228.114 126.942 224.48 126.942 220.049H126.941ZM147.44 220.049V207.443H141.935V210.499C140.183 208.229 137.539 206.804 133.937 206.804C126.842 206.804 121.279 212.333 121.279 220.044C121.279 227.755 126.831 233.284 133.937 233.284C137.539 233.284 140.183 231.859 141.935 229.589V232.65H147.44V220.044V220.049ZM116.405 232.654V216.834C116.405 210.874 112.592 206.865 106.45 206.811C103.219 206.758 99.8776 207.759 97.5501 211.297C95.8041 208.501 93.0447 206.811 89.1779 206.811C86.4802 206.811 83.8303 207.602 81.7635 210.555V207.443H76.2586V232.654H81.8113V218.677C81.8113 214.299 84.2483 211.975 88.0072 211.975C91.6627 211.975 93.5182 214.349 93.5182 218.623V232.654H99.0709V218.677C99.0709 214.299 101.617 211.975 105.267 211.975C109.032 211.975 110.832 214.349 110.832 218.623V232.654H116.385H116.405ZM290.013 230.758V231.372H290.591C290.699 231.376 290.807 231.348 290.9 231.294C290.939 231.269 290.971 231.234 290.992 231.192C291.014 231.151 291.024 231.105 291.022 231.059C291.024 231.013 291.014 230.968 290.992 230.927C290.971 230.887 290.939 230.853 290.9 230.83C290.808 230.772 290.7 230.745 290.591 230.751L290.013 230.758ZM290.594 230.323C290.841 230.308 291.085 230.378 291.285 230.523C291.366 230.588 291.429 230.671 291.471 230.766C291.513 230.86 291.533 230.963 291.527 231.066C291.531 231.155 291.515 231.243 291.482 231.325C291.448 231.407 291.398 231.481 291.333 231.542C291.178 231.675 290.985 231.755 290.781 231.771L291.552 232.647H290.958L290.249 231.777H290.019V232.647H289.512V230.323H290.594ZM290.44 233.444C290.701 233.446 290.959 233.394 291.197 233.29C291.428 233.192 291.637 233.05 291.814 232.874C291.992 232.698 292.134 232.489 292.232 232.26C292.333 232.018 292.385 231.76 292.385 231.499C292.385 231.237 292.333 230.979 292.232 230.738C292.133 230.509 291.991 230.3 291.814 230.123C291.638 229.947 291.428 229.807 291.197 229.713C290.959 229.609 290.701 229.557 290.44 229.559C290.175 229.557 289.913 229.609 289.669 229.713C289.433 229.806 289.218 229.945 289.038 230.123C288.765 230.402 288.581 230.754 288.508 231.137C288.435 231.519 288.476 231.914 288.626 232.274C288.72 232.504 288.86 232.713 289.038 232.888C289.219 233.066 289.434 233.207 289.669 233.304C289.913 233.408 290.175 233.46 290.44 233.458V233.444ZM290.44 229.003C290.782 229.001 291.121 229.069 291.435 229.203C291.741 229.327 292.019 229.509 292.254 229.741C292.487 229.968 292.673 230.239 292.8 230.538C292.932 230.845 293 231.176 293 231.51C293 231.844 292.932 232.175 292.8 232.482C292.671 232.779 292.486 233.047 292.254 233.273C292.018 233.505 291.74 233.689 291.435 233.817C291.121 233.952 290.782 234.02 290.44 234.017C290.101 234.019 289.765 233.955 289.451 233.827C289.136 233.7 288.851 233.512 288.609 233.275C288.378 233.049 288.192 232.78 288.063 232.484C287.931 232.177 287.863 231.846 287.863 231.512C287.863 231.179 287.931 230.848 288.063 230.541C288.191 230.242 288.376 229.971 288.609 229.744C288.843 229.511 289.121 229.328 289.428 229.206C289.748 229.072 290.093 229.004 290.44 229.007" fill="white"/>
</svg>
