<svg width="37" height="25" viewBox="0 0 424 278" fill="none" xmlns="http://www.w3.org/2000/svg">
<rect width="424" height="278" fill="white"/>
<path d="M390.2 201.881V197.593H389.065L387.751 200.536L386.445 197.593H385.306V201.881H386.113V198.651L387.341 201.438H388.176L389.404 198.644V201.881H390.204H390.2ZM382.997 201.881V198.328H384.45V197.604H380.737V198.328H382.19V201.881H382.99H382.997Z" fill="#F79410"/>
<path d="M261.152 220.271H162.898V46.6104H261.154L261.152 220.271Z" fill="#FF5F00"/>
<path d="M169.128 133.444C169.128 98.2172 185.899 66.8368 212.015 46.6139C192.246 31.2837 167.796 22.9634 142.621 23C80.6072 23 30.3376 72.4468 30.3376 133.444C30.3376 194.442 80.6072 243.888 142.621 243.888C167.796 243.925 192.248 235.605 212.016 220.275C185.902 200.055 169.128 168.673 169.128 133.444Z" fill="#EB001B"/>
<path d="M393.708 133.444C393.708 194.442 343.438 243.888 281.424 243.888C256.246 243.925 231.793 235.605 212.02 220.275C238.143 200.052 254.914 168.673 254.914 133.444C254.914 98.2154 238.143 66.8368 212.02 46.6139C231.792 31.2841 256.245 22.9641 281.422 23C343.436 23 393.706 72.4468 393.706 133.444" fill="#F79E1B"/>
</svg>
