<svg width="37" height="25" viewBox="0 0 210 125" fill="none" xmlns="http://www.w3.org/2000/svg">
<path d="M210 124.043H0V1.20309e-06H210V124.043Z" fill="white"/>
<path d="M3.49612 103.886H206.496V120.812H3.49612V103.886V103.886Z" fill="#F7B600"/>
<path d="M3.49612 20.1775H206.496V3.25367H3.49612V20.1775V20.1775Z" fill="#1A1F71"/>
<path d="M100.962 35.4573L90.7887 79.6807H78.4842L88.6576 35.4573H100.962ZM152.724 64.0126L159.203 47.4052L162.924 64.0126H152.724V64.0126ZM166.458 79.6807H177.835L167.895 35.4573H157.399C155.032 35.4573 153.043 36.7347 152.16 38.6992L133.697 79.6807H146.618L149.181 73.0748H164.967L166.458 79.6807ZM134.339 65.2421C134.39 53.5726 116.986 52.9253 117.1 47.7108C117.142 46.126 118.766 44.4381 122.32 44.0069C124.081 43.7954 128.945 43.6263 134.455 45.9868L136.61 36.6037C133.65 35.6083 129.84 34.65 125.102 34.65C112.938 34.65 104.381 40.6574 104.313 49.2667C104.234 55.6348 110.425 59.1841 115.081 61.305C119.877 63.4711 121.485 64.8633 121.463 66.7989C121.429 69.766 117.633 71.0795 114.104 71.1284C107.916 71.2197 104.328 69.5734 101.467 68.3339L99.2335 78.0281C102.112 79.2548 107.418 80.3207 112.913 80.375C125.843 80.375 134.301 74.4363 134.339 65.2421ZM83.3794 35.4573L63.4447 79.6807H50.4382L40.6274 44.3866C40.0334 42.2178 39.5162 41.4195 37.7059 40.5028C34.7474 39.0084 29.8619 37.6108 25.5676 36.7411L25.8573 35.4573H46.7962C49.4611 35.4573 51.8606 37.1072 52.4702 39.964L57.6541 65.5567L70.4516 35.4573H83.3794Z" fill="#1A1F71"/>
<path d="M116.709 91.8535H111.71V96.1803H117.302V97.4812H110.025V85.4772H117.015V86.7782H111.71V90.5706H116.709V91.8535Z" fill="#1A1F71"/>
<path d="M119.885 84.8368H121.57V97.4808H119.885V84.8368Z" fill="#1A1F71"/>
<path d="M130.761 92.3338C130.78 91.3547 130.32 89.8051 128.425 89.8051C126.701 89.8051 125.973 91.248 125.839 92.3338H130.761ZM125.82 93.4557C125.858 95.5757 127.295 96.4481 128.998 96.4481C130.206 96.4481 130.952 96.2519 131.566 96.0033L131.872 97.1252C131.278 97.3738 130.245 97.6767 128.769 97.6767C125.916 97.6767 124.212 95.9138 124.212 93.3137C124.212 90.7137 125.858 88.6832 128.559 88.6832C131.604 88.6832 132.389 91.1413 132.389 92.7261C132.389 93.0461 132.37 93.2776 132.331 93.4557H125.82V93.4557Z" fill="#1A1F71"/>
<path d="M141.559 97.1781C141.118 97.3742 140.141 97.6771 138.897 97.6771C136.101 97.6771 134.282 95.9142 134.282 93.278C134.282 90.6246 136.234 88.6836 139.261 88.6836C140.256 88.6836 141.137 88.9142 141.597 89.1465L141.215 90.3398C140.811 90.1437 140.179 89.9294 139.261 89.9294C137.134 89.9294 135.986 91.4075 135.986 93.1894C135.986 95.1837 137.365 96.4123 139.203 96.4123C140.161 96.4123 140.793 96.199 141.271 96.0028L141.559 97.1781Z" fill="#1A1F71"/>
<path d="M146.286 86.7956V88.8613H148.698V90.0538H146.286V94.7024C146.286 95.7719 146.612 96.3767 147.55 96.3767C148.009 96.3767 148.278 96.3414 148.527 96.2691L148.604 97.4634C148.278 97.57 147.761 97.6767 147.11 97.6767C146.324 97.6767 145.692 97.4272 145.291 97.0186C144.831 96.5367 144.639 95.7719 144.639 94.7566V90.0538H143.202V88.8613H144.639V87.2585L146.286 86.7956Z" fill="#1A1F71"/>
<path d="M151.052 91.5507C151.052 90.5355 151.032 89.6631 150.976 88.8612H152.451L152.527 90.5707H152.584C153.006 89.4136 154.039 88.6831 155.169 88.6831C155.342 88.6831 155.476 88.7012 155.63 88.7183V90.1974C155.457 90.1612 155.286 90.1612 155.054 90.1612C153.868 90.1612 153.024 90.9803 152.795 92.1564C152.757 92.3698 152.737 92.6365 152.737 92.8869V97.4813H151.052V91.5507Z" fill="#1A1F71"/>
<path d="M158.653 93.1893C158.653 95.0769 159.802 96.5017 161.449 96.5017C163.058 96.5017 164.263 95.0941 164.263 93.1531C164.263 91.6931 163.479 89.8578 161.487 89.8578C159.515 89.8578 158.653 91.5683 158.653 93.1893ZM165.988 93.0998C165.988 96.2874 163.594 97.677 161.372 97.677C158.882 97.677 156.93 95.9665 156.93 93.2426C156.93 90.375 158.978 88.6835 161.526 88.6835C164.188 88.6835 165.988 90.4816 165.988 93.0998" fill="#1A1F71"/>
<path d="M168.571 91.194C168.571 90.2863 168.55 89.5739 168.494 88.8616H169.987L170.083 90.2863H170.121C170.581 89.4844 171.654 88.6835 173.186 88.6835C174.468 88.6835 176.46 89.3959 176.46 92.3512V97.4807H174.775V92.5121C174.775 91.1235 174.22 89.9654 172.631 89.9654C171.539 89.9654 170.676 90.6959 170.371 91.5683C170.293 91.7645 170.255 92.0312 170.255 92.2987V97.4807H168.571V91.194Z" fill="#1A1F71"/>
</svg>
