<svg width="37" height="25" viewBox="0 0 210 125" fill="none" xmlns="http://www.w3.org/2000/svg">
<path d="M210 124.043H0V1.20309e-06H210V124.043Z" fill="white"/>
<path d="M3.49612 103.886H206.496V120.812H3.49612V103.886V103.886Z" fill="#F7B600"/>
<path d="M3.49612 20.1775H206.496V3.25367H3.49612V20.1775V20.1775Z" fill="#1A1F71"/>
<path d="M104.194 35.9711L93.1035 89.1649H79.6892L90.7801 35.9711H104.194ZM160.624 70.3186L167.688 50.3425L171.745 70.3186H160.624V70.3186ZM175.598 89.1649H188L177.164 35.9711H165.722C163.141 35.9711 160.972 37.5076 160.01 39.8706L139.882 89.1649H153.968L156.762 81.219H173.972L175.598 89.1649ZM140.581 71.7975C140.638 57.761 121.664 56.9824 121.788 50.7101C121.834 48.8038 123.604 46.7736 127.479 46.2549C129.398 46.0004 134.701 45.7971 140.708 48.6364L143.057 37.3499C139.83 36.1527 135.677 35 130.511 35C117.251 35 107.922 42.226 107.848 52.5816C107.761 60.2414 114.511 64.5107 119.587 67.0618C124.815 69.6672 126.568 71.3419 126.544 73.6701C126.507 77.239 122.369 78.8191 118.521 78.8778C111.775 78.9876 107.864 77.0074 104.745 75.5165L102.31 87.177C105.448 88.6527 111.232 89.9348 117.223 90C131.32 90 140.54 82.8567 140.581 71.7975ZM85.0259 35.9711L63.2933 89.1649H49.1137L38.4181 46.7116C37.7705 44.1029 37.2066 43.1427 35.2331 42.04C32.0077 40.2425 26.6817 38.5613 22 37.5152L22.3159 35.9711H45.1433C48.0485 35.9711 50.6644 37.9556 51.329 41.3919L56.9804 72.1759L70.9321 35.9711H85.0259Z" fill="#1A1F71"/>
</svg>
